<mxfile host="Electron" agent="Mozilla/5.0 (Windows NT 10.0; Win64; x64) AppleWebKit/537.36 (KHTML, like Gecko) draw.io/28.0.6 Chrome/138.0.7204.100 Electron/37.2.3 Safari/537.36" version="28.0.6">
  <diagram name="Planta-de-Rede" id="planta-rede">
    <mxGraphModel dx="1281" dy="626" grid="1" gridSize="10" guides="1" tooltips="1" connect="1" arrows="1" fold="1" page="1" pageScale="1" pageWidth="1169" pageHeight="827" math="0" shadow="0">
      <root>
        <mxCell id="0" />
        <mxCell id="1" parent="0" />
        <mxCell id="title" value="🌐 PLANTA DE REDE - AMBIENTES ISOLADOS" style="rounded=0;whiteSpace=wrap;html=1;fillColor=#1ba1e2;strokeColor=#006EAF;fontSize=18;fontStyle=1;fontColor=#ffffff;" parent="1" vertex="1">
          <mxGeometry x="40" y="20" width="1080" height="50" as="geometry" />
        </mxCell>
        <mxCell id="azure-region" value="Azure Region: Brazil South" style="rounded=1;whiteSpace=wrap;html=1;fillColor=#e1d5e7;strokeColor=#9673a6;fontSize=14;fontStyle=1;verticalAlign=top;spacingTop=10;" parent="1" vertex="1">
          <mxGeometry x="60" y="90" width="1710" height="700" as="geometry" />
        </mxCell>
        <mxCell id="internet" value="🌍 INTERNET" style="ellipse;whiteSpace=wrap;html=1;fillColor=#f8cecc;strokeColor=#b85450;fontSize=16;fontStyle=1;" parent="1" vertex="1">
          <mxGeometry x="320" y="120" width="120" height="80" as="geometry" />
        </mxCell>
        <mxCell id="load-balancer" value="⚖️ Azure Load Balancer&#xa;Public IP: Dynamic&#xa;SKU: Basic" style="rounded=1;whiteSpace=wrap;html=1;fillColor=#fff2cc;strokeColor=#d6b656;fontSize=12;fontStyle=1;" parent="1" vertex="1">
          <mxGeometry x="480" y="220" width="200" height="80" as="geometry" />
        </mxCell>
        <mxCell id="dev-segment" value="🟢 DEV NETWORK SEGMENT" style="rounded=1;whiteSpace=wrap;html=1;fillColor=#d5e8d4;strokeColor=#82b366;fontSize=14;fontStyle=1;verticalAlign=top;spacingTop=15;" parent="1" vertex="1">
          <mxGeometry x="80" y="330" width="480" height="430" as="geometry" />
        </mxCell>
        <mxCell id="dev-vnet-detail" value="🔷 VNet: dev-vnet-isolated&#xa;📍 Address Space: 10.100.0.0/16&#xa;📊 Size: 65,534 IPs&#xa;🏷️ DNS: Azure Default&#xa;🔒 DDoS: Basic Protection" style="rounded=1;whiteSpace=wrap;html=1;fillColor=#dae8fc;strokeColor=#6c8ebf;fontSize=11;fontStyle=1;verticalAlign=top;spacingTop=10;" parent="1" vertex="1">
          <mxGeometry x="100" y="370" width="220" height="120" as="geometry" />
        </mxCell>
        <mxCell id="dev-subnet-detail" value="🔸 Subnet: dev-subnet-isolated&#xa;📍 CIDR: 10.100.1.0/24&#xa;📊 Available: 251 IPs&#xa;🚪 Gateway: 10.100.1.1&#xa;🛡️ NSG: dev-nsg-isolated" style="rounded=1;whiteSpace=wrap;html=1;fillColor=#f8cecc;strokeColor=#b85450;fontSize=10;" parent="1" vertex="1">
          <mxGeometry x="110" y="510" width="200" height="100" as="geometry" />
        </mxCell>
        <mxCell id="dev-appgw" value="🚪 Application Gateway&#xa;Tier: Basic&#xa;Capacity: 1 instance&#xa;WAF: Disabled (cost opt.)" style="rounded=1;whiteSpace=wrap;html=1;fillColor=#ffcc99;strokeColor=#ff6600;fontSize=10;" parent="1" vertex="1">
          <mxGeometry x="340" y="370" width="180" height="80" as="geometry" />
        </mxCell>
        <mxCell id="dev-endpoints" value="🔗 Private Endpoints&#xa;├── SQL: 10.100.1.10&#xa;├── Storage: 10.100.1.11&#xa;└── KeyVault: 10.100.1.12" style="rounded=1;whiteSpace=wrap;html=1;fillColor=#e1d5e7;strokeColor=#9673a6;fontSize=10;" parent="1" vertex="1">
          <mxGeometry x="340" y="470" width="180" height="80" as="geometry" />
        </mxCell>
        <mxCell id="dev-routes" value="🗺️ Route Table: dev-routes&#xa;├── 0.0.0.0/0 → Internet&#xa;├── 10.100.0.0/16 → VNetLocal&#xa;└── 168.63.129.16/32 → Internet" style="rounded=1;whiteSpace=wrap;html=1;fillColor=#f5f5f5;strokeColor=#666666;fontSize=9;" parent="1" vertex="1">
          <mxGeometry x="340" y="570" width="180" height="80" as="geometry" />
        </mxCell>
        <mxCell id="dev-network-details" value="�� DEV NETWORK DETAILS&#xa;┌─────────────────────────────┐&#xa;│ DHCP Options: Azure Default │&#xa;│ DNS Servers: 168.63.129.16  │&#xa;│ NTP Servers: time.windows.com│&#xa;│ Domain: None                 │&#xa;│ VLAN: N/A (Azure Virtual)   │&#xa;│ MTU: 1500 bytes             │&#xa;│ Bandwidth: Unlimited         │&#xa;└─────────────────────────────┘" style="rounded=1;whiteSpace=wrap;html=1;fillColor=#d5e8d4;strokeColor=#82b366;fontSize=9;fontFamily=Courier New;" parent="1" vertex="1">
          <mxGeometry x="100" y="630" width="220" height="120" as="geometry" />
        </mxCell>
        <mxCell id="hml-segment" value="🟡 HOMOLOG NETWORK SEGMENT" style="rounded=1;whiteSpace=wrap;html=1;fillColor=#ffe6cc;strokeColor=#d79b00;fontSize=14;fontStyle=1;verticalAlign=top;spacingTop=15;" parent="1" vertex="1">
          <mxGeometry x="1000" y="320" width="480" height="430" as="geometry" />
        </mxCell>
        <mxCell id="hml-vnet-detail" value="🔷 VNet: hml-vnet-isolated&#xa;📍 Address Space: 10.200.0.0/16&#xa;📊 Size: 65,534 IPs&#xa;🏷️ DNS: Azure Default&#xa;🔒 DDoS: Basic Protection" style="rounded=1;whiteSpace=wrap;html=1;fillColor=#dae8fc;strokeColor=#6c8ebf;fontSize=11;fontStyle=1;verticalAlign=top;spacingTop=10;" parent="1" vertex="1">
          <mxGeometry x="1020" y="360" width="220" height="120" as="geometry" />
        </mxCell>
        <mxCell id="hml-subnet-detail" value="🔸 Subnet: hml-subnet-isolated&#xa;📍 CIDR: 10.200.1.0/24&#xa;📊 Available: 251 IPs&#xa;🚪 Gateway: 10.200.1.1&#xa;🛡️ NSG: hml-nsg-isolated" style="rounded=1;whiteSpace=wrap;html=1;fillColor=#f8cecc;strokeColor=#b85450;fontSize=10;" parent="1" vertex="1">
          <mxGeometry x="1030" y="500" width="200" height="100" as="geometry" />
        </mxCell>
        <mxCell id="hml-appgw" value="🚪 Application Gateway&#xa;Tier: Standard&#xa;Capacity: 2 instances&#xa;WAF: Detection Mode" style="rounded=1;whiteSpace=wrap;html=1;fillColor=#ffcc99;strokeColor=#ff6600;fontSize=10;" parent="1" vertex="1">
          <mxGeometry x="1260" y="360" width="180" height="80" as="geometry" />
        </mxCell>
        <mxCell id="hml-endpoints" value="🔗 Private Endpoints&#xa;├── SQL: 10.200.1.10&#xa;├── Storage: 10.200.1.11&#xa;├── KeyVault: 10.200.1.12&#xa;└── Redis: 10.200.1.13" style="rounded=1;whiteSpace=wrap;html=1;fillColor=#e1d5e7;strokeColor=#9673a6;fontSize=10;" parent="1" vertex="1">
          <mxGeometry x="1260" y="460" width="180" height="90" as="geometry" />
        </mxCell>
        <mxCell id="hml-routes" value="🗺️ Route Table: hml-routes&#xa;├── 0.0.0.0/0 → Internet&#xa;├── 10.200.0.0/16 → VNetLocal&#xa;└── 168.63.129.16/32 → Internet" style="rounded=1;whiteSpace=wrap;html=1;fillColor=#f5f5f5;strokeColor=#666666;fontSize=9;" parent="1" vertex="1">
          <mxGeometry x="1260" y="570" width="180" height="80" as="geometry" />
        </mxCell>
        <mxCell id="hml-network-details" value="📊 HML NETWORK DETAILS&#xa;┌─────────────────────────────┐&#xa;│ DHCP Options: Azure Default │&#xa;│ DNS Servers: 168.63.129.16  │&#xa;│ NTP Servers: time.windows.com│&#xa;│ Domain: None                 │&#xa;│ VLAN: N/A (Azure Virtual)   │&#xa;│ MTU: 1500 bytes             │&#xa;│ Bandwidth: Unlimited         │&#xa;└─────────────────────────────┘" style="rounded=1;whiteSpace=wrap;html=1;fillColor=#ffe6cc;strokeColor=#d79b00;fontSize=9;fontFamily=Courier New;" parent="1" vertex="1">
          <mxGeometry x="1020" y="620" width="220" height="120" as="geometry" />
        </mxCell>
        <mxCell id="network-barrier" value="🚫 NETWORK ISOLATION&#xa;No Peering&#xa;No VPN Gateway&#xa;No ExpressRoute&#xa;Complete Segregation" style="rounded=0;whiteSpace=wrap;html=1;fillColor=#ff6666;strokeColor=#ff0000;fontSize=11;fontStyle=1;rotation=90;" parent="1" vertex="1">
          <mxGeometry x="737.5" y="317.5" width="80" height="435" as="geometry" />
        </mxCell>
        <mxCell id="conn-internet-lb" value="" style="endArrow=classic;html=1;strokeColor=#000000;strokeWidth=3;" parent="1" source="internet" target="load-balancer" edge="1">
          <mxGeometry width="50" height="50" relative="1" as="geometry">
            <mxPoint x="400" y="300" as="sourcePoint" />
            <mxPoint x="450" y="250" as="targetPoint" />
          </mxGeometry>
        </mxCell>
        <mxCell id="conn-lb-dev" value="" style="endArrow=classic;html=1;strokeColor=#82b366;strokeWidth=2;" parent="1" source="load-balancer" target="dev-appgw" edge="1">
          <mxGeometry width="50" height="50" relative="1" as="geometry">
            <mxPoint x="400" y="300" as="sourcePoint" />
            <mxPoint x="450" y="250" as="targetPoint" />
          </mxGeometry>
        </mxCell>
        <mxCell id="conn-lb-hml" value="" style="endArrow=classic;html=1;strokeColor=#d79b00;strokeWidth=2;" parent="1" target="hml-appgw" edge="1">
          <mxGeometry width="50" height="50" relative="1" as="geometry">
            <mxPoint x="1078.6666666666665" y="290" as="sourcePoint" />
            <mxPoint x="850" y="240" as="targetPoint" />
          </mxGeometry>
        </mxCell>
      </root>
    </mxGraphModel>
  </diagram>
</mxfile>
